<svg viewBox="0 0 24 24" fill="white">
  <path
    d="M6,16 L19,16 C19.5522847,16 20,16.4477153 20,17 L20,21 C20,21.5522847 19.5522847,22 19,22 L6,22 C4.8954305,22 4,21.1045695 4,20 L4,18 C4,16.8954305 4.8954305,16 6,16 Z" fillOpacity="0.75" />
  <path d="M19,2 C19.5522847,2 20,2.44771525 20,3 L20,19 C20,19.5522847 19.5522847,20 19,20 L6,20 C4.8954305,20 4,19.1045695 4,18 L4,4 C4,2.8954305 4.8954305,2 6,2 L19,2 Z M14.4676845,9 L11.5079767,12.9536523 L9.50029382,10.8745763 L7,14 L18,14 L14.4676845,9 Z M10.75,9 C10.3357864,9 10,9.33578644 10,9.75 C10,10.1642136 10.3357864,10.5 10.75,10.5 C11.1642136,10.5 11.5,10.1642136 11.5,9.75 C11.5,9.33578644 11.1642136,9 10.75,9 Z" />
</svg>