<svg viewBox="0 0 24 24" fill="white">
  <path d="M3.4,3.34740684 C3.47896999,3.34740684 3.55617307,3.37078205 3.62188008,3.41458672 L9,7 L9,21 L3.4452998,17.2968665 C3.16710114,17.1114008 3,16.7991694 3,16.4648162 L3,3.74740684 C3,3.52649294 3.1790861,3.34740684 3.4,3.34740684 Z M15,3 L21.4961389,6.71207939 C21.8077139,6.89012225 22,7.22146569 22,7.58032254 L22,20.3107281 C22,20.531642 21.8209139,20.7107281 21.6,20.7107281 C21.5303892,20.7107281 21.4619835,20.692562 21.4015444,20.6580254 L15,17 L15,3 Z" />
  <polygon
    fillOpacity="0.75"
    transform="translate(12, 12) scale(1, -1) translate(-12, -12)"
    points="9 3 15 7 15 21 9 17"
  />
</svg>