<svg viewBox="0 0 24 24" fill="white">
  <path
    d="M13.4691754,16.7806702 L13,21 L11,21 L10.5318353,16.7809803 C10.9960818,16.9233714 11.4890921,17 12,17 C12.5112786,17 13.0046337,16.9232601 13.4691754,16.7806702 Z M16.4192861,14.3409153 L19.0710678,17.6568542 L17.6568542,19.0710678 L14.3409153,16.4192861 C15.2243208,15.9503691 15.9503691,15.2243208 16.4192861,14.3409153 Z M9.65908474,16.4192861 L6.34314575,19.0710678 L4.92893219,17.6568542 L7.5807139,14.3409153 C8.04963086,15.2243208 8.77567918,15.9503691 9.65908474,16.4192861 Z M7,12 C7,12.5112786 7.07673988,13.0046337 7.21932976,13.4691754 L3,13 L3,11 L7.21901966,10.5318353 C7.07662862,10.9960818 7,11.4890921 7,12 Z M16.7809803,10.5318353 L21,11 L21,13 L16.7806702,13.4691754 C16.9232601,13.0046337 17,12.5112786 17,12 C17,11.4890921 16.9233714,10.9960818 16.7809803,10.5318353 Z M6.34314575,4.92893219 L9.65908474,7.5807139 C8.77567918,8.04963086 8.04963086,8.77567918 7.5807139,9.65908474 L4.92893219,6.34314575 L6.34314575,4.92893219 Z M17.6568542,4.92893219 L19.0710678,6.34314575 L16.4192861,9.65908474 C15.9503691,8.77567918 15.2243208,8.04963086 14.3409153,7.5807139 L17.6568542,4.92893219 Z M13,3 L13.4691754,7.21932976 C13.0046337,7.07673988 12.5112786,7 12,7 C11.4890921,7 10.9960818,7.07662862 10.5318353,7.21901966 L11,3 L13,3 Z"
    fillOpacity="0.76"
  />
  <path d="M12,5 C15.8659932,5 19,8.13400675 19,12 C19,15.8659932 15.8659932,19 12,19 C8.13400675,19 5,15.8659932 5,12 C5,8.13400675 8.13400675,5 12,5 Z M12,8 C9.790861,8 8,9.790861 8,12 C8,14.209139 9.790861,16 12,16 C14.209139,16 16,14.209139 16,12 C16,9.790861 14.209139,8 12,8 Z" />
</svg>