<svg xmlns="http://www.w3.org/2000/svg" width="22" height="22" fill="none" stroke="black" viewBox="0 0 22 22">
  <circle cx="11" cy="11" r="8.5"/>
  <path d="M17.5 11c0 4.819-3.02 8.5-6.5 8.5S4.5 15.819 4.5 11 7.52 2.5 11 2.5s6.5 3.681 6.5 8.5Z"/>
  <path d="M13.5 11c0 2.447-.331 4.64-.853 6.206-.262.785-.562 1.384-.872 1.777-.314.399-.58.517-.775.517s-.461-.118-.775-.517c-.31-.393-.61-.992-.872-1.777C8.831 15.64 8.5 13.446 8.5 11s.331-4.64.853-6.206c.262-.785.562-1.384.872-1.777.314-.399.58-.517.775-.517s.461.118.775.517c.31.393.61.992.872 1.777.522 1.565.853 3.76.853 6.206Z"/>
  <path d="M11 7.5c-1.909 0-3.622-.166-4.845-.428-.616-.132-1.08-.283-1.379-.434a1.3 1.3 0 0 1-.224-.138q.07-.058.224-.138c.299-.151.763-.302 1.379-.434C7.378 5.666 9.091 5.5 11 5.5s3.622.166 4.845.428c.616.132 1.08.283 1.379.434.105.053.177.1.224.138q-.07.058-.224.138c-.299.151-.763.302-1.379.434-1.223.262-2.936.428-4.845.428ZM4.486 6.436ZM11 16.5c-1.909 0-3.622-.166-4.845-.428-.616-.132-1.08-.283-1.379-.434a1.3 1.3 0 0 1-.224-.138 1.3 1.3 0 0 1 .224-.138c.299-.151.763-.302 1.379-.434C7.378 14.666 9.091 14.5 11 14.5s3.622.166 4.845.428c.616.132 1.08.283 1.379.434.105.053.177.1.224.138a1.3 1.3 0 0 1-.224.138c-.299.151-.763.302-1.379.434-1.223.262-2.936.428-4.845.428Zm-6.514-1.064ZM11 12.5c-2.46 0-4.672-.222-6.255-.574-.796-.177-1.406-.38-1.805-.59a1.5 1.5 0 0 1-.39-.272.3.3 0 0 1-.047-.064.3.3 0 0 1 .048-.064c.066-.073.189-.167.389-.272.399-.21 1.009-.413 1.805-.59C6.328 9.722 8.54 9.5 11 9.5s4.672.222 6.256.574c.795.177 1.405.38 1.804.59.2.105.323.2.39.272a.3.3 0 0 1 .047.064.3.3 0 0 1-.048.064 1.4 1.4 0 0 1-.389.272c-.399.21-1.009.413-1.804.59-1.584.352-3.796.574-6.256.574Zm-8.501-1.51v.002zm0 .018v.002zm17.002.002v-.002zm0-.018v-.002z"/>
</svg>
