<?xml version="1.0" encoding="UTF-8"?>
<svg width="13px" height="15px" viewBox="0 0 13 14" version="1.1" xmlns="http://www.w3.org/2000/svg" xmlns:xlink="http://www.w3.org/1999/xlink">
    <g id="Symbols" stroke="none" stroke-width="1" fill="none" fill-rule="evenodd">
        <path d="M9.16666667,5.68434189e-14 C9.41979718,5.68434189e-14 9.62899397,0.188102588 9.66210226,0.432152962 L9.66666667,0.5 L9.666,1.333 L11.1666667,1.33333333 C12.1285626,1.33333333 12.9174396,2.07411552 12.9939226,3.01630483 L13,3.16666667 L13,12.5 C13,13.512522 12.1791887,14.3333333 11.1666667,14.3333333 L11.1666667,14.3333333 L1.83333333,14.3333333 C0.820811292,14.3333333 0,13.512522 0,12.5 L0,12.5 L0,3.16666667 C0,2.15414463 0.820811292,1.33333333 1.83333333,1.33333333 L1.83333333,1.33333333 L3.333,1.333 L3.33333333,0.5 C3.33333333,0.223857625 3.55719096,5.68434189e-14 3.83333333,5.68434189e-14 C4.08646384,5.68434189e-14 4.29566064,0.188102588 4.32876892,0.432152962 L4.33333333,0.5 L4.333,1.333 L8.666,1.333 L8.66666667,0.5 C8.66666667,0.223857625 8.89052429,5.68434189e-14 9.16666667,5.68434189e-14 Z M12,6.333 L1,6.333 L1,12.5 C1,12.9248344 1.31790432,13.2754183 1.72880177,13.3268405 L1.83333333,13.3333333 L11.1666667,13.3333333 C11.626904,13.3333333 12,12.9602373 12,12.5 L12,12.5 L12,6.333 Z M3.333,2.333 L1.83333333,2.33333333 C1.37309604,2.33333333 1,2.70642938 1,3.16666667 L1,3.16666667 L1,5.333 L12,5.333 L12,3.16666667 C12,2.74183224 11.6820957,2.39124835 11.2711982,2.33982618 L11.1666667,2.33333333 L9.666,2.333 L9.66666667,3.16666667 C9.66666667,3.44280904 9.44280904,3.66666667 9.16666667,3.66666667 C8.91353616,3.66666667 8.70433936,3.47856408 8.67123108,3.2345137 L8.66666667,3.16666667 L8.666,2.333 L4.333,2.333 L4.33333333,3.16666667 C4.33333333,3.44280904 4.10947571,3.66666667 3.83333333,3.66666667 C3.58020282,3.66666667 3.37100603,3.47856408 3.33789774,3.2345137 L3.33333333,3.16666667 L3.333,2.333 Z" fill="currentColor" fill-rule="nonzero"></path>
    </g>
</svg>