<?xml version="1.0" encoding="UTF-8"?>
<svg width="16px" height="17px" viewBox="0 0 16 17" version="1.1" xmlns="http://www.w3.org/2000/svg" xmlns:xlink="http://www.w3.org/1999/xlink">
    <g stroke="none" stroke-width="1" fill="none" fill-rule="evenodd">
        <g transform="translate(8, 8.5) rotate(-330) translate(-8, -8.5) translate(4, 2)" stroke="currentColor" fill="currentColor">
            <path d="M6.76850191,0.434840963 C6.04896114,1.86467297 5.79279384,3.20120746 6,4.44444444 C6.17989677,5.52382504 6.63266329,6.48919052 7.35829958,7.34054088 C7.50158762,7.50867286 7.48146228,7.76112984 7.31333862,7.90442763 C7.24096223,7.96611661 7.14897427,8 7.053875,8 L0.922873286,8 C0.701919553,8.00007212 0.522801161,7.82095373 0.522801161,7.59999999 C0.522801161,7.50599929 0.555900634,7.41500023 0.616293108,7.34296634 C1.36567981,6.44912577 1.82691544,5.48295181 2,4.44444444 C2.19754347,3.25918364 1.93688287,1.92116674 1.21801821,0.430393743 C1.14595115,0.281147735 1.2086138,0.10177184 1.35789863,0.0297852978 C1.39855358,0.0101811032 1.44310701,8.29112604e-18 1.4882418,0 L6.50055336,0 C6.666219,3.58349532e-05 6.80051754,0.134334371 6.80051754,0.300000012 C6.80051754,0.346829895 6.78955305,0.393009303 6.76850191,0.434840963 Z" stroke-linejoin="round"></path>
            <line x1="4" y1="8" x2="4" y2="13" stroke-linecap="round"></line>
        </g>
    </g>
</svg>