<?xml version="1.0" encoding="UTF-8"?>
<svg width="12px" height="14px" viewBox="0 0 12 12" version="1.1" xmlns="http://www.w3.org/2000/svg" xmlns:xlink="http://www.w3.org/1999/xlink">
  <path stroke="none" stroke-width="1" fill="none" d="M5.01241676,3.99743718 L5.2123926,4.0051107 C6.08060614,4.06729045 6.87900923,4.50349496 7.40038252,5.20051071 C7.56578589,5.42163587 7.52061445,5.73497915 7.29948929,5.90038252 C7.07836413,6.06578589 6.76502085,6.02061445 6.59961748,5.79948929 C6.25203528,5.33481212 5.71976656,5.04400912 5.14095753,5.00255596 C4.62002941,4.96524811 4.10763194,5.1332244 3.71124008,5.46642286 L3.58355339,5.58355339 L2.0896441,7.0773559 C1.33169968,7.86211367 1.34253936,9.10952545 2.11400695,9.88099305 C2.84487099,10.6118571 4.00289823,10.6600523 4.78475751,10.0238225 L4.91144661,9.91144661 L5.76644661,9.05644661 C5.96170876,8.86118446 6.27829124,8.86118446 6.47355339,9.05644661 C6.64711974,9.23001296 6.66640489,9.49943736 6.53140884,9.6943055 L6.47355339,9.76355339 L5.6123559,10.6246441 C4.43521924,11.7615607 2.56410157,11.7453012 1.40690017,10.5880998 C0.295986831,9.47718649 0.236565536,7.70832791 1.24484904,6.52165836 L1.37644661,6.37644661 L2.87638252,4.87651071 C3.44442608,4.30826116 4.21444071,3.99361146 5.01241676,3.99743718 Z M10.5930998,1.41190017 C11.7040132,2.52281351 11.7634345,4.29167209 10.755151,5.47834164 L10.6235534,5.62355339 L9.12361748,7.12348929 C8.50823696,7.73909297 7.65582094,8.05706905 6.7876074,7.9948893 C5.91939386,7.93270955 5.12099077,7.49650504 4.59961748,6.79948929 C4.43421411,6.57836413 4.47938555,6.26502085 4.70051071,6.09961748 C4.92163587,5.93421411 5.23497915,5.97938555 5.40038252,6.20051071 C5.74796472,6.66518788 6.28023344,6.95599088 6.85904247,6.99744404 C7.37997059,7.03475189 7.89236806,6.8667756 8.28875992,6.53357714 L8.41644661,6.41644661 L9.9103559,4.9226441 C10.6683003,4.13788633 10.6574606,2.89047455 9.88599305,2.11900695 C9.15512901,1.38814291 7.99710177,1.3399477 7.21436478,1.97705267 L7.08752112,2.08958265 L6.22752112,2.94458265 C6.03169053,3.13927469 5.71510939,3.13835172 5.52041735,2.94252112 C5.34735776,2.76844949 5.32885818,2.49897001 5.46442178,2.30449627 L5.52247888,2.23541735 L6.3876441,1.3753559 C7.56478076,0.238439269 9.43589843,0.254698775 10.5930998,1.41190017 Z" fill="currentColor" fill-rule="nonzero"></path>
</svg>