<?xml version="1.0" encoding="UTF-8"?>
<svg width="10px" height="14px" viewBox="0 0 10 2" version="1.1" xmlns="http://www.w3.org/2000/svg" xmlns:xlink="http://www.w3.org/1999/xlink">
      <path stroke="none" stroke-width="1" fill="none" d="M0.646446609,0.646446609 C1.13807119,0.5 1.26307119,0.555964406 1.35355339,0.646446609 C1.44403559,0.736928813 1.5,0.861928813 1.5,1 C1.5,1.13807119 1.44403559,1.26307119 1.35355339,1.35355339 C1.26307119,1.44403559 1.13807119,1.5 1,1.5 C0.861928813,1.5 0.736928813,1.44403559 0.646446609,1.35355339 C0.555964406,1.26307119 0.5,1.13807119 0.5,1 C0.5,0.861928813 0.555964406,0.736928813 0.646446609,0.646446609 Z M4.64644661,0.646446609 C5.13807119,0.5 5.26307119,0.555964406 5.35355339,0.646446609 C5.44403559,0.736928813 5.5,0.861928813 5.5,1 C5.5,1.13807119 5.44403559,1.26307119 5.35355339,1.35355339 C5.26307119,1.44403559 5.13807119,1.5 5,1.5 C4.86192881,1.5 4.73692881,1.44403559 4.64644661,1.35355339 C4.55596441,1.26307119 4.5,1.13807119 4.5,1 C4.5,0.861928813 4.55596441,0.736928813 4.64644661,0.646446609 Z M8.64644661,0.646446609 C9.13807119,0.5 9.26307119,0.555964406 9.35355339,0.646446609 C9.44403559,0.736928813 9.5,0.861928813 9.5,1 C9.5,1.13807119 9.44403559,1.26307119 9.35355339,1.35355339 C9.26307119,1.44403559 9.13807119,1.5 9,1.5 C8.86192881,1.5 8.73692881,1.44403559 8.64644661,1.35355339 C8.55596441,1.26307119 8.5,1.13807119 8.5,1 C8.5,0.861928813 8.55596441,0.736928813 8.64644661,0.646446609 Z" stroke="currentColor"></path>
</svg>