<?xml version="1.0" encoding="UTF-8"?>
<svg width="13px" height="14px" viewBox="0 0 13 14" version="1.1" xmlns="http://www.w3.org/2000/svg" xmlns:xlink="http://www.w3.org/1999/xlink">
    <path stroke="none" d="M7.63636364,0 C8.65306965,0 9.48414783,0.79476725 9.54221374,1.79691732 L9.54545455,1.90909091 L9.545,2.545 L12.0909091,2.54545455 C12.442363,2.54545455 12.7272727,2.83036425 12.7272727,3.18181818 C12.7272727,3.50816826 12.4816108,3.77714092 12.1651225,3.81390053 L12.0909091,3.81818182 L11.454,3.818 L11.4545455,12.0909091 C11.4545455,13.1076151 10.6597782,13.9386933 9.65762814,13.9967592 L9.54545455,14 L3.18181818,14 C2.16511217,14 1.33403399,13.2052327 1.27596808,12.2030827 L1.27272727,12.0909091 L1.272,3.818 L0.636363636,3.81818182 C0.284909705,3.81818182 2.27373675e-13,3.53327211 2.27373675e-13,3.18181818 C2.27373675e-13,2.8554681 0.245661939,2.58649544 0.562150193,2.54973583 L0.636363636,2.54545455 L3.181,2.545 L3.18181818,1.90909091 C3.18181818,0.892384892 3.97658543,0.0613067131 4.9787355,0.0032408049 L5.09090909,0 L7.63636364,0 Z M10.181,3.818 L2.545,3.818 L2.54545455,12.0909091 C2.54545455,12.4172592 2.79111648,12.6862318 3.10760474,12.7229914 L3.18181818,12.7272727 L9.54545455,12.7272727 C9.87180462,12.7272727 10.1407773,12.4816108 10.1775369,12.1651225 L10.1818182,12.0909091 L10.181,3.818 Z M5.09090909,5.72727273 C5.41725917,5.72727273 5.68623183,5.97293467 5.72299144,6.28942292 L5.72727273,6.36363636 L5.72727273,10.1818182 C5.72727273,10.5332721 5.44236302,10.8181818 5.09090909,10.8181818 C4.76455901,10.8181818 4.49558635,10.5725199 4.45882674,10.2560316 L4.45454545,10.1818182 L4.45454545,6.36363636 C4.45454545,6.01218243 4.73945516,5.72727273 5.09090909,5.72727273 Z M7.63636364,5.72727273 C7.96271372,5.72727273 8.23168637,5.97293467 8.26844599,6.28942292 L8.27272727,6.36363636 L8.27272727,10.1818182 C8.27272727,10.5332721 7.98781757,10.8181818 7.63636364,10.8181818 C7.31001356,10.8181818 7.0410409,10.5725199 7.00428128,10.2560316 L7,10.1818182 L7,6.36363636 C7,6.01218243 7.2849097,5.72727273 7.63636364,5.72727273 Z M7.63636364,1.27272727 L5.09090909,1.27272727 C4.76455901,1.27272727 4.49558635,1.51838921 4.45882674,1.83487747 L4.45454545,1.90909091 L4.454,2.545 L8.272,2.545 L8.27272727,1.90909091 C8.27272727,1.58274083 8.02706533,1.31376817 7.71057708,1.27700856 L7.63636364,1.27272727 Z" fill="currentColor" fill-rule="nonzero"></path>
</svg>