<?xml version="1.0" encoding="UTF-8"?>
<svg width="14px" height="14px" viewBox="0 0 14 14" version="1.1" xmlns="http://www.w3.org/2000/svg" xmlns:xlink="http://www.w3.org/1999/xlink">
  <path stroke="none" d="M12.0909091,4.45454545 C13.1452709,4.45454545 14,5.30927457 14,6.36363636 L14,6.36363636 L14,12.0909091 C14,13.1452709 13.1452709,14 12.0909091,14 L12.0909091,14 L6.36363636,14 C5.30927457,14 4.45454545,13.1452709 4.45454545,12.0909091 L4.45454545,12.0909091 L4.45454545,6.36363636 C4.45454545,5.30927457 5.30927457,4.45454545 6.36363636,4.45454545 L6.36363636,4.45454545 Z M12.0909091,5.72727273 L6.36363636,5.72727273 C6.01218243,5.72727273 5.72727273,6.01218243 5.72727273,6.36363636 L5.72727273,6.36363636 L5.72727273,12.0909091 C5.72727273,12.442363 6.01218243,12.7272727 6.36363636,12.7272727 L6.36363636,12.7272727 L12.0909091,12.7272727 C12.442363,12.7272727 12.7272727,12.442363 12.7272727,12.0909091 L12.7272727,12.0909091 L12.7272727,6.36363636 C12.7272727,6.01218243 12.442363,5.72727273 12.0909091,5.72727273 L12.0909091,5.72727273 Z M7.63636364,0 C8.65306965,0 9.48414783,0.79476725 9.54221374,1.79691732 L9.54545455,1.90909091 L9.54545455,2.54545455 C9.54545455,2.89690848 9.26054484,3.18181818 8.90909091,3.18181818 C8.58274083,3.18181818 8.31376817,2.93615624 8.27700856,2.61966799 L8.27272727,2.54545455 L8.27272727,1.90909091 C8.27272727,1.58274083 8.02706533,1.31376817 7.71057708,1.27700856 L7.63636364,1.27272727 L1.90909091,1.27272727 C1.58274083,1.27272727 1.31376817,1.51838921 1.27700856,1.83487747 L1.27272727,1.90909091 L1.27272727,7.63636364 C1.27272727,7.96271372 1.51838921,8.23168637 1.83487747,8.26844599 L1.90909091,8.27272727 L2.54545455,8.27272727 C2.89690848,8.27272727 3.18181818,8.55763698 3.18181818,8.90909091 C3.18181818,9.23544099 2.93615624,9.50441365 2.61966799,9.54117326 L2.54545455,9.54545455 L1.90909091,9.54545455 C0.892384892,9.54545455 0.0613067131,8.7506873 0.0032408049,7.74853723 L0,7.63636364 L0,1.90909091 C0,0.892384892 0.79476725,0.0613067131 1.79691732,0.0032408049 L1.90909091,0 L7.63636364,0 Z" fill="currentColor" fill-rule="nonzero"></path>
</svg>