<svg
  viewBox="0 0 15 15"
  width="15px"
  height="15px"
  fill="currentColor">
  <path d="M7.33333333,0 C8.069713,0 8.66666667,0.596953667 8.66666667,1.33333333 L8.66666667,1.39333333 C8.66841527,1.83176195 8.93035293,2.22728781 9.33333333,2.4 C9.74472671,2.5815643 10.2252088,2.49444392 10.5466667,2.18 L10.5866667,2.14 C10.8367577,1.88963061 11.176121,1.74895112 11.53,1.74895112 C11.883879,1.74895112 12.2232423,1.88963061 12.4733333,2.14 C12.7237027,2.39009101 12.8643822,2.72945434 12.8643822,3.08333333 C12.8643822,3.43721233 12.7237027,3.77657566 12.4733333,4.02666667 L12.4333333,4.06666667 C12.1188894,4.38812449 12.031769,4.86860662 12.2133333,5.28 L12.2133333,5.33333333 C12.3860455,5.73631374 12.7815714,5.9982514 13.22,6 L13.3333333,6 C14.069713,6 14.6666667,6.59695367 14.6666667,7.33333333 C14.6666667,8.069713 14.069713,8.66666667 13.3333333,8.66666667 L13.2733333,8.66666667 C12.8349047,8.66841527 12.4393789,8.93035293 12.2666667,9.33333333 C12.0851024,9.74472671 12.1722227,10.2252088 12.4866667,10.5466667 L12.5266667,10.5866667 C12.7770361,10.8367577 12.9177155,11.176121 12.9177155,11.53 C12.9177155,11.883879 12.7770361,12.2232423 12.5266667,12.4733333 C12.2765757,12.7237027 11.9372123,12.8643822 11.5833333,12.8643822 C11.2294543,12.8643822 10.890091,12.7237027 10.64,12.4733333 L10.6,12.4333333 C10.2785422,12.1188894 9.79806005,12.031769 9.38666667,12.2133333 C8.98368626,12.3860455 8.7217486,12.7815714 8.72,13.22 L8.72,13.3333333 C8.72,14.069713 8.12304633,14.6666667 7.38666667,14.6666667 C6.650287,14.6666667 6.05333333,14.069713 6.05333333,13.3333333 L6.05333333,13.2733333 C6.04277107,12.8217805 5.75724785,12.4225768 5.33333333,12.2666667 C4.92193995,12.0851024 4.44145782,12.1722227 4.12,12.4866667 L4.08,12.5266667 C3.82990899,12.7770361 3.49054566,12.9177155 3.13666667,12.9177155 C2.78278767,12.9177155 2.44342434,12.7770361 2.19333333,12.5266667 C1.94296394,12.2765757 1.80228446,11.9372123 1.80228446,11.5833333 C1.80228446,11.2294543 1.94296394,10.890091 2.19333333,10.64 L2.23333333,10.6 C2.54777725,10.2785422 2.63489764,9.79806005 2.45333333,9.38666667 C2.28062114,8.98368626 1.88509528,8.7217486 1.44666667,8.72 L1.33333333,8.72 C0.596953667,8.72 0,8.12304633 0,7.38666667 C0,6.650287 0.596953667,6.05333333 1.33333333,6.05333333 L1.39333333,6.05333333 C1.84488612,6.04277107 2.24408988,5.75724785 2.4,5.33333333 C2.5815643,4.92193995 2.49444392,4.44145782 2.18,4.12 L2.14,4.08 C1.88963061,3.82990899 1.74895112,3.49054566 1.74895112,3.13666667 C1.74895112,2.78278767 1.88963061,2.44342434 2.14,2.19333333 C2.39009101,1.94296394 2.72945434,1.80228446 3.08333333,1.80228446 C3.43721233,1.80228446 3.77657566,1.94296394 4.02666667,2.19333333 L4.06666667,2.23333333 C4.38812449,2.54777725 4.86860662,2.63489764 5.28,2.45333333 L5.33333333,2.45333333 C5.73631374,2.28062114 5.9982514,1.88509528 6,1.44666667 L6,1.33333333 C6,0.596953667 6.59695367,0 7.33333333,0 Z M7.33333333,5.33333333 C6.22876383,5.33333333 5.33333333,6.22876383 5.33333333,7.33333333 C5.33333333,8.43790283 6.22876383,9.33333333 7.33333333,9.33333333 C8.43790283,9.33333333 9.33333333,8.43790283 9.33333333,7.33333333 C9.33333333,6.22876383 8.43790283,5.33333333 7.33333333,5.33333333 Z" />
</svg>