<?xml version="1.0" encoding="UTF-8"?>
<svg width="15px" height="13px" viewBox="0 0 15 13" version="1.1" xmlns="http://www.w3.org/2000/svg" xmlns:xlink="http://www.w3.org/1999/xlink">
  <path fill="currentColor" d="M4,3.55271368e-14 L4.0278401,0.000770874105 C4.04128052,0.00151580687 4.05469661,0.00280063794 4.06805308,0.0046253673 L4,3.55271368e-14 C4.04183471,3.55271368e-14 4.08246942,0.00513782494 4.12130755,0.0148169071 C4.13326871,0.0178373169 4.14523456,0.0212920805 4.15708315,0.0252017355 C4.16997104,0.0294299553 4.18277427,0.034259294 4.19531518,0.0395860503 C4.20839103,0.0451160612 4.22150919,0.0513529918 4.23439118,0.0581928845 C4.23503401,0.0585723692 4.23566876,0.058911632 4.23630269,0.0592522225 L4.30644972,0.104852306 L4.30644972,0.104852306 L4.35355339,0.146446609 L7.85355339,3.64644661 C8.04881554,3.84170876 8.04881554,4.15829124 7.85355339,4.35355339 C7.67331141,4.53379537 7.38969588,4.54766014 7.19355028,4.39514769 L7.14644661,4.35355339 L4.5,1.707 L4.5,12 C4.5,12.2761424 4.27614237,12.5 4,12.5 C3.74358208,12.5 3.53224642,12.3069799 3.50336387,12.0583106 L3.5,12 L3.5,1.707 L0.853553391,4.35355339 C0.67331141,4.53379537 0.389695882,4.54766014 0.193550278,4.39514769 L0.146446609,4.35355339 C-0.0337953714,4.17331141 -0.0476601392,3.88969588 0.104852306,3.69355028 L0.146446609,3.64644661 L3.64644661,0.146446609 L3.65767597,0.135561002 C3.67134412,0.122717283 3.68573494,0.110633776 3.70078091,0.0993780001 L3.64644661,0.146446609 C3.67320128,0.11969194 3.70223365,0.0966031755 3.73291954,0.0771803148 C3.74617456,0.0688441438 3.75977662,0.0610999945 3.77375753,0.0539938991 C3.78609769,0.0476919126 3.79888567,0.0418687101 3.81184952,0.0366116524 C3.8234432,0.0319023624 3.83504722,0.0276848515 3.84684229,0.0238934918 C3.86557052,0.0179217879 3.88445336,0.0130756914 3.90351142,0.00934593934 C3.91016306,0.00799330119 3.91744282,0.00672777028 3.92477476,0.00562145489 C3.94767442,0.00222086491 3.97013713,0.000384038311 3.99261784,5.41592491e-05 L4,3.55271368e-14 Z M11,0 C11.2564179,0 11.4677536,0.193020095 11.4966361,0.441689437 L11.5,0.5 L11.499,10.792 L14.1464466,8.14644661 C14.3266886,7.96620463 14.6103041,7.95233986 14.8064497,8.10485231 L14.8535534,8.14644661 C15.0337954,8.32668859 15.0476601,8.61030412 14.8951477,8.80644972 L14.8535534,8.85355339 L11.3535534,12.3535534 L11.342324,12.364439 C11.3286559,12.3772827 11.3142651,12.3893662 11.2992191,12.400622 L11.3535534,12.3535534 C11.3267987,12.3803081 11.2977664,12.4033968 11.2670805,12.4228197 C11.2538254,12.4311559 11.2402234,12.4389 11.2262425,12.4460061 C11.2139023,12.4523081 11.2011143,12.4581313 11.1881505,12.4633883 C11.1765568,12.4680976 11.1649528,12.4723151 11.1531577,12.4761065 C11.1344295,12.4820782 11.1155466,12.4869243 11.0964886,12.4906541 C11.08887,12.4921969 11.0806073,12.4936082 11.0722781,12.4948142 C11.0526434,12.4976054 11.0335482,12.4992446 11.0144276,12.4997931 L11,12.5 L11,12.5 L10.9590982,12.4983345 C10.9507048,12.4976497 10.9423254,12.4967538 10.9339686,12.4956467 L11,12.5 C10.9581653,12.5 10.9175306,12.4948622 10.8786924,12.4851831 C10.8667313,12.4821627 10.8547654,12.4787079 10.8429168,12.4747983 C10.828989,12.4702266 10.8151853,12.4649672 10.8016896,12.4591301 C10.7896647,12.4539556 10.7775355,12.4481398 10.7656088,12.4418071 C10.74145,12.4289242 10.7184764,12.4141602 10.6968848,12.3976777 L10.6935503,12.3951477 L10.6464466,12.3535534 L7.14644661,8.85355339 C6.95118446,8.65829124 6.95118446,8.34170876 7.14644661,8.14644661 C7.32668859,7.96620463 7.61030412,7.95233986 7.80644972,8.10485231 L7.85355339,8.14644661 L10.499,10.792 L10.5,0.5 C10.5,0.223857625 10.7238576,0 11,0 Z"></path>
</svg>